<?xml version="1.0" encoding="UTF-8"?>
<!DOCTYPE svg PUBLIC "-//W3C//DTD SVG 1.1//EN" "http://www.w3.org/Graphics/SVG/1.1/DTD/svg11.dtd">
<!-- Creator: CorelDRAW 2019 (64-Bit) -->
<svg xmlns="http://www.w3.org/2000/svg" xml:space="preserve" width="0.393697in" height="0.474079in" version="1.1" style="shape-rendering:geometricPrecision; text-rendering:geometricPrecision; image-rendering:optimizeQuality; fill-rule:evenodd; clip-rule:evenodd"
viewBox="0 0 767.04 923.65"
 xmlns:xlink="http://www.w3.org/1999/xlink"
 xmlns:xodm="http://www.corel.com/coreldraw/odm/2003">
 <defs>
  <style type="text/css">
   <![CDATA[
    .fil0 {fill:#FEFEFE}
   ]]>
  </style>
 </defs>
 <g id="Layer_x0020_1">
  <metadata id="CorelCorpID_0Corel-Layer"/>
  <g id="_2115916353840">
   <path class="fil0" d="M762.05 923c-14.01,-54.18 -47.69,-97 -87.74,-123.4 -99.69,-65.73 -232.34,-24.75 -378.33,-38.47 -57.56,-5.41 -98.24,-47.43 -113.57,-95.97 -14.47,-45.77 -6.13,-337.03 -6.24,-410.64 -0.13,-81.3 0.18,-116.4 -38.76,-171.28 -25.72,-36.25 -71.25,-76.34 -134.44,-81.87 -3.12,139.43 0.31,280.99 -0.21,420.28 -0.51,134.16 -18.97,275.79 46.78,372.32 65.11,95.58 139.27,129.78 288.47,129.68 141.34,-0.08 282.83,0.17 424.03,-0.64z"/>
   <path class="fil0" d="M586.88 306.6l-284.07 0.31c0.97,37.37 5.5,64.79 21.65,90.49 11,17.5 36.11,40.3 58.17,50.82 55.35,26.39 138.85,7.26 203.01,13.8 10.39,69.88 -10.73,183.62 7.57,247.93 55.37,20.03 68.77,9.39 136.5,63.74 14.18,11.38 23.91,24.94 34.2,32.58 6.79,-59.85 0.19,-393.43 1.51,-489.07 1.54,-112.4 7.93,-213.9 -88.9,-280.22 -27.99,-19.17 -49.51,-30.72 -88.49,-36.98l-1.16 306.6z"/>
  </g>
 </g>
</svg>
