<?xml version="1.0" encoding="UTF-8"?>
<!DOCTYPE svg PUBLIC "-//W3C//DTD SVG 1.1//EN" "http://www.w3.org/Graphics/SVG/1.1/DTD/svg11.dtd">
<!-- Creator: CorelDRAW 2019 (64-Bit) -->
<svg xmlns="http://www.w3.org/2000/svg" xml:space="preserve" width="4.07855in" height="4.91049in" version="1.1" style="shape-rendering:geometricPrecision; text-rendering:geometricPrecision; image-rendering:optimizeQuality; fill-rule:evenodd; clip-rule:evenodd"
viewBox="0 0 4279.65 5152.61"
 xmlns:xlink="http://www.w3.org/1999/xlink"
 xmlns:xodm="http://www.corel.com/coreldraw/odm/2003">
 <defs>
  <style type="text/css">
   <![CDATA[
    .str0 {stroke:#FEFEFE;stroke-width:7.29;stroke-miterlimit:2.61313}
    .fil0 {fill:#FEFEFE}
   ]]>
  </style>
 </defs>
 <g id="Layer_x0020_1">
  <metadata id="CorelCorpID_0Corel-Layer"/>
  <path class="fil0 str0" d="M4248.22 5145.37c-78.01,-301.82 -265.62,-540.3 -488.65,-687.36 -555.25,-366.11 -1294.16,-137.88 -2107.28,-214.27 -320.62,-30.1 -547.21,-264.21 -632.61,-534.53 -80.57,-254.92 -34.11,-1877.29 -34.75,-2287.27 -0.71,-452.84 1.02,-648.36 -215.86,-954.05 -143.27,-201.9 -396.9,-425.24 -748.83,-455.97 -17.43,776.61 1.74,1565.11 -1.24,2340.92 -2.86,747.23 -105.64,1536.16 260.58,2073.83 362.65,532.39 775.77,722.85 1606.78,722.3 787.28,-0.5 1575.39,0.9 2361.84,-3.6z"/>
  <path class="fil0 str0" d="M3272.54 1712.01l-1582.26 1.73c5.39,208.17 30.62,360.86 120.56,504.05 61.24,97.47 201.07,224.46 324,283.07 308.31,147.01 773.4,40.44 1130.77,76.86 57.83,389.26 -59.76,1022.8 42.17,1380.97 308.38,111.55 383.01,52.31 760.34,355.04 79,63.38 133.15,138.9 190.49,181.45 37.82,-333.35 1.07,-2191.37 8.41,-2724.14 8.61,-626.01 44.17,-1191.41 -495.17,-1560.79 -155.91,-106.76 -275.73,-171.11 -492.89,-205.97l-6.43 1707.74z"/>
 </g>
</svg>
